<?xml version="1.0" standalone="no"?><!DOCTYPE svg PUBLIC "-//W3C//DTD SVG 1.1//EN" "http://www.w3.org/Graphics/SVG/1.1/DTD/svg11.dtd"><svg t="1562043229321" class="icon" viewBox="0 0 1024 1024" version="1.1" xmlns="http://www.w3.org/2000/svg" p-id="3128" xmlns:xlink="http://www.w3.org/1999/xlink" width="200" height="200"><defs><style type="text/css"></style></defs><path d="M441.462 554.18a987.41 987.41 0 0 0 168.74-77.291c103.966-60.025 196.999-138.986 273.482-233.64a481.776 481.776 0 0 0-33.048-41.935c-72.774 92.521-162.96 170.8-266.435 230.541-47.985 27.705-97.995 50.941-149.452 69.568C440.04 512.5 443 524.905 443 538c0 5.533-0.529 10.942-1.538 16.18z m-148.138 38.977a975.418 975.418 0 0 1-275.04 10.337 476.817 476.817 0 0 1-6.453-53.052c87.746 10.274 175.648 7.905 261.371-6.533 1.287 18.736 8.645 35.803 20.122 49.248z" fill="#ffffff" p-id="3129"></path><path d="M831.55 580.159c-216.608-61.98-389.33-204.171-494.463-385.516a92.911 92.911 0 0 0 39.177-36.275c100.043 178.617 269.299 318.247 482.669 375.42 2.276 0.61 4.553 1.21 6.83 1.798-15.836 10.57-28.01 26.197-34.213 44.573zM279.005 202.348c32.032 80.14 51.066 165.893 55.232 254.018A85.036 85.036 0 0 1 358 453c9.948 0 19.497 1.71 28.37 4.85-3.842-90.37-22.352-178.445-53.76-261.163-11.095 4.708-23.298 7.313-36.11 7.313-5.981 0-11.83-0.568-17.495-1.652z m-18.34 625.26c19.29-41.275 35.246-84.802 47.448-130.338a795.56 795.56 0 0 0 17.22-80.774C335.39 620.686 346.425 623 358 623c6.638 0 13.098-0.76 19.298-2.2a847.835 847.835 0 0 1-18.957 89.928c-11.85 44.228-27.024 86.677-45.18 127.152C300.67 830.948 286.296 827 271 827c-3.497 0-6.946 0.206-10.336 0.608zM827.069 604.505c-191.414 19.807-369.698 105.336-504.772 239.22 14.337 10.483 25.346 25.247 31.145 42.411C482.787 755.365 655.611 672.51 841.035 655.4 832.158 641.764 827 625.484 827 608c0-1.17 0.023-2.335 0.069-3.495zM979.894 551.19A497.278 497.278 0 0 0 981 518c0-270.62-219.38-490-490-490-44.94 0-88.468 6.05-129.813 17.38 14.658 14.343 24.567 33.52 27.146 54.953C421.232 92.273 455.617 88 491 88c237.482 0 430 192.518 430 430 0 1.093-0.004 2.185-0.012 3.277 23.504 1.868 44.377 13.077 58.906 29.914z m-28.697 135.48C882.447 874.192 702.35 1008 491 1008c-57.302 0-112.306-9.836-163.417-27.912 15.573-13.346 26.374-32.1 29.492-53.353C399.222 940.536 444.239 948 491 948c176.285 0 327.793-106.08 394.172-257.89 9.022 3.168 18.724 4.89 28.828 4.89 13.308 0 25.919-2.988 37.197-8.33zM204.43 120.49C81.2 209.487 1 354.378 1 518c0 154.858 71.837 292.938 184.005 382.733 3.245-21.208 14.148-39.896 29.799-53.15C120.778 768.702 61 650.332 61 518c0-139.441 66.373-263.38 169.249-341.948-14.281-14.654-23.74-34.028-25.818-55.561z" fill="#ffffff" p-id="3130"></path><path d="M358 623c46.944 0 85-38.056 85-85s-38.056-85-85-85-85 38.056-85 85 38.056 85 85 85z m0 52c-75.663 0-137-61.337-137-137s61.337-137 137-137 137 61.337 137 137-61.337 137-137 137zM271 1024c-60.751 0-110-49.249-110-110s49.249-110 110-110 110 49.249 110 110-49.249 110-110 110zM914 666c32.033 0 58-25.967 58-58s-25.967-58-58-58-58 25.967-58 58 25.967 58 58 58z m0 52c-60.751 0-110-49.249-110-110s49.249-110 110-110 110 49.249 110 110-49.249 110-110 110zM296 221c-60.751 0-110-49.249-110-110S235.249 1 296 1s110 49.249 110 110-49.249 110-110 110z" fill="#ffffff" p-id="3131"></path></svg>